<svg width="131" height="57" viewBox="0 0 131 57" fill="none" xmlns="http://www.w3.org/2000/svg">
<path d="M29.07 41H19.08L11.25 27.5V41H2.25L2.25 9.5H11.25L11.25 22.1L18.63 9.5H28.62L19.26 24.8L29.07 41ZM34.5934 16.79C33.3334 16.79 32.2384 16.34 31.3084 15.44C30.4084 14.51 29.9584 13.43 29.9584 12.2C29.9584 10.97 30.4084 9.905 31.3084 9.005C32.2384 8.075 33.3334 7.61 34.5934 7.61C35.8234 7.61 36.8884 8.075 37.7884 9.005C38.7184 9.905 39.1834 10.97 39.1834 12.2C39.1834 13.43 38.7184 14.51 37.7884 15.44C36.8884 16.34 35.8234 16.79 34.5934 16.79ZM30.4084 41L30.4084 18.5L38.7334 18.5V41H30.4084ZM42.3176 41V8.15L50.6426 8.15V41H42.3176ZM54.2268 41V8.15H62.5518V41H54.2268ZM80.0859 18.5H88.4109V41H80.0859V38.795C78.7059 40.685 76.6959 41.63 74.0559 41.63C71.5959 41.63 69.6159 40.79 68.1159 39.11C66.6459 37.4 65.9109 34.865 65.9109 31.505V18.5H74.2359V30.605C74.2359 32.615 75.1659 33.62 77.0259 33.62C78.0159 33.62 78.7659 33.305 79.2759 32.675C79.8159 32.045 80.0859 31.175 80.0859 30.065V18.5ZM107.277 18.5H115.602V41H107.277V38.975C105.837 40.745 103.827 41.63 101.247 41.63C98.2168 41.63 95.7418 40.505 93.8218 38.255C91.9018 36.005 90.9418 33.17 90.9418 29.75C90.9418 26.33 91.9018 23.495 93.8218 21.245C95.7418 18.995 98.2168 17.87 101.247 17.87C103.827 17.87 105.837 18.755 107.277 20.525V18.5ZM100.347 32.765C101.097 33.575 102.072 33.98 103.272 33.98C104.472 33.98 105.432 33.575 106.152 32.765C106.902 31.955 107.277 30.95 107.277 29.75C107.277 28.55 106.902 27.545 106.152 26.735C105.432 25.925 104.472 25.52 103.272 25.52C102.072 25.52 101.097 25.925 100.347 26.735C99.6268 27.545 99.2668 28.55 99.2668 29.75C99.2668 30.95 99.6268 31.955 100.347 32.765Z" fill="white"/>
<path d="M127.817 40.19C126.827 41.18 125.612 41.675 124.172 41.675C122.732 41.675 121.502 41.18 120.482 40.19C119.492 39.17 118.997 37.94 118.997 36.5C118.997 35.06 119.492 33.845 120.482 32.855C121.502 31.835 122.732 31.325 124.172 31.325C125.612 31.325 126.827 31.835 127.817 32.855C128.837 33.845 129.347 35.06 129.347 36.5C129.347 37.94 128.837 39.17 127.817 40.19Z" fill="#98FB4A"/>
<path d="M17.5454 21.1114L105.709 40.2441L105.604 40.6586L2.30925 14.4844L17.5454 21.1114Z" fill="#050505"/>
</svg>
