<svg width="70" height="70" viewBox="0 0 70 70" fill="none" xmlns="http://www.w3.org/2000/svg">
<g clip-path="url(#clip0)">
<path d="M68.6798 31.8811L38.1172 1.32009C36.3582 -0.440029 33.5035 -0.440029 31.7423 1.32009L25.3958 7.66657L33.4466 15.7174C35.3175 15.0852 37.4628 15.5093 38.9542 17.0006C40.4526 18.5015 40.8737 20.6652 40.2262 22.5421L47.985 30.3012C49.8621 29.6545 52.028 30.0729 53.5273 31.5746C55.6227 33.6691 55.6227 37.0638 53.5273 39.1597C51.4314 41.2559 48.0367 41.2559 45.9397 39.1597C44.3636 37.582 43.9742 35.2674 44.7721 33.3257L37.5364 26.09L37.5356 45.1313C38.0601 45.3907 38.5392 45.7333 38.9542 46.1458C41.0495 48.2403 41.0495 51.6353 38.9542 53.7329C36.8583 55.8279 33.4619 55.8279 31.369 53.7329C29.2737 51.6353 29.2737 48.2406 31.369 46.1461C31.8712 45.6437 32.4679 45.2458 33.1248 44.9755V25.7566C32.4669 25.4881 31.8699 25.09 31.369 24.5861C29.7814 23.0007 29.3997 20.6713 30.2132 18.7219L22.277 10.7849L1.3207 31.7397C-0.440234 33.5015 -0.440234 36.3565 1.3207 38.1168L31.8839 68.6784C33.6435 70.4388 36.4976 70.4388 38.2594 68.6784L68.6796 38.2588C70.44 36.4978 70.44 33.6412 68.6796 31.8811" fill="white"/>
</g>
<defs>
<clipPath id="clip0">
<rect width="70" height="70" fill="white"/>
</clipPath>
</defs>
</svg>
