<svg width="57" height="70" viewBox="0 0 57 70" fill="none" xmlns="http://www.w3.org/2000/svg">
<g clip-path="url(#clip0)">
<path d="M6.14316 87.1257V79.5178C6.14316 78.9815 5.74984 78.75 5.28631 78.75C4.35706 78.75 3.19637 78.9815 2.14287 79.4459V87.1257H0V72.9997H2.14266V77.66C3.16116 77.2855 4.37522 76.9644 5.58972 76.9644C7.53616 76.9644 8.26853 78.1607 8.26853 79.8029V87.1257H6.14316ZM12.2679 82.5182C12.3392 85.0719 12.8395 85.5722 14.4104 85.5722C15.6428 85.5722 17.0358 85.1611 18.1077 84.7503L18.4647 86.3573C17.3215 86.8757 15.9287 87.3755 14.2684 87.3755C10.6962 87.3755 10.1423 85.4116 10.1423 82.2857C10.1423 80.5718 10.2677 79.0178 10.6783 77.5891C11.7497 77.1783 13.1786 76.9641 14.9817 76.9641C17.9115 76.9641 18.804 78.5894 18.804 81.4288V82.5182H12.2679ZM14.9817 78.75C14.3397 78.75 13.3214 78.7679 12.4821 78.9279C12.3933 79.3566 12.2854 79.9461 12.2498 81.0357H16.7145C16.7145 79.553 16.4465 78.75 14.9817 78.75ZM22.8211 79.4459V87.1257H20.678V78.4818C22.4818 77.4999 24.3926 77.1962 25.6432 77.107V78.8929C24.7682 78.9642 23.6602 79.0714 22.8211 79.4459ZM31.3038 87.3755C28.1065 87.3755 26.6602 85.8043 26.6602 82.2144C26.6602 78.4105 28.5709 76.9644 31.3038 76.9644C34.5002 76.9644 35.947 78.5354 35.947 82.1251C35.947 85.9292 34.0357 87.3755 31.3038 87.3755ZM31.3038 78.7502C29.6605 78.7502 28.7499 79.6963 28.7499 82.2144C28.7499 84.9649 29.5177 85.5722 31.3038 85.5722C32.9466 85.5722 33.8575 84.6431 33.8575 82.1251C33.8575 79.3745 33.0897 78.7502 31.3038 78.7502ZM46.286 87.1257H43.7675C43.1786 85.5542 42.3566 83.9469 41.0887 82.5539H39.9634V87.1257H37.8206V72.9997H39.9634V81.107H40.9638C42.0532 79.9818 42.8923 78.5894 43.4818 77.214H45.8924C45.0712 78.8749 44.0177 80.3392 42.8389 81.5358C44.2498 83.3217 45.3572 85.2147 46.286 87.1257ZM50.3029 87.3755C48.3566 87.3755 47.6245 86.1794 47.6245 84.5362V77.214H49.7494V84.8039C49.7494 85.3403 50.1419 85.5722 50.6063 85.5722C51.5351 85.5722 52.803 85.3403 53.8569 84.8757V77.214H56V85.8218C53.464 87.215 51.5172 87.3755 50.3029 87.3755ZM49.3561 69.3991H6.61894C2.96297 69.3991 0 66.4361 0 62.7808V6.6185C0 2.96319 2.96319 0 6.61872 0H49.3559C53.0112 0 55.9753 2.96319 55.9753 6.6185V62.7808C55.9753 66.4361 53.0114 69.3991 49.3561 69.3991Z" fill="white"/>
<path d="M35.0787 59.85V32.2897C35.0787 32.2897 36.8714 25.6943 12.9975 34.9877C12.9537 35.1056 12.9537 9.50247 12.9537 9.50247L20.7543 9.45435V25.8586C20.7543 25.8586 42.5956 17.2563 42.5956 32.3826V59.85H35.0789H35.0787ZM39.5237 19.3825H31.2497C34.228 15.7412 36.9241 9.50225 36.9241 9.50225H45.4794C45.4794 9.50225 44.0146 13.5682 39.5239 19.3825H39.5237ZM13.0955 59.8023V44.1074L20.9438 51.9555L13.0955 59.8023Z" fill="black"/>
</g>
<defs>
<clipPath id="clip0">
<rect width="56.25" height="70" fill="white"/>
</clipPath>
</defs>
</svg>
