<svg width="70" height="70" viewBox="0 0 70 70" fill="none" xmlns="http://www.w3.org/2000/svg">
<path d="M0 10C0 4.47715 4.47715 0 10 0H60C65.5229 0 70 4.47715 70 10V60C70 65.5229 65.5229 70 60 70H10C4.47715 70 0 65.5229 0 60V10Z" fill="white"/>
<path d="M18.4056 58.4969L23.7622 55.2551C24.7958 57.0874 25.7359 58.6378 27.991 58.6378C30.1525 58.6378 31.5156 57.7923 31.5156 54.5034V32.1367H38.0937V54.5964C38.0937 61.4096 34.0998 64.5109 28.2729 64.5109C23.0106 64.5109 19.956 61.7856 18.4053 58.4964L18.4056 58.4969ZM41.6667 57.792L47.0228 54.691C48.4329 56.9936 50.2655 58.6851 53.5073 58.6851C56.2332 58.6851 57.9712 57.3223 57.9712 55.4426C57.9712 53.1873 56.1856 52.3883 53.1784 51.0731L51.5342 50.3676C46.7881 48.3478 43.6401 45.8103 43.6401 40.4536C43.6401 35.5197 47.399 31.7605 53.2727 31.7605C57.4547 31.7605 60.4619 33.2174 62.6232 37.0233L57.5012 40.3128C56.3732 38.2924 55.1521 37.4937 53.2724 37.4937C51.3458 37.4937 50.1241 38.7154 50.1241 40.3128C50.1241 42.2862 51.3458 43.0855 54.1649 44.3072L55.8094 45.0118C61.4012 47.4085 64.5493 49.8517 64.5493 55.3489C64.5493 61.2699 59.8976 64.5117 53.6481 64.5117C47.5398 64.5117 43.5928 61.5985 41.6664 57.7923" fill="black"/>
</svg>
