<svg width="88" height="38" viewBox="0 0 88 38" fill="none" xmlns="http://www.w3.org/2000/svg">
<path d="M19.38 27H12.72L7.5 18V27H1.5V6H7.5V14.4L12.42 6H19.08L12.84 16.2L19.38 27ZM23.0623 10.86C22.2223 10.86 21.4923 10.56 20.8723 9.96C20.2723 9.34 19.9723 8.62 19.9723 7.8C19.9723 6.98 20.2723 6.27 20.8723 5.67C21.4923 5.05 22.2223 4.74 23.0623 4.74C23.8823 4.74 24.5923 5.05 25.1923 5.67C25.8123 6.27 26.1223 6.98 26.1223 7.8C26.1223 8.62 25.8123 9.34 25.1923 9.96C24.5923 10.56 23.8823 10.86 23.0623 10.86ZM20.2723 27V12H25.8223V27H20.2723ZM28.2117 27V5.1H33.7617V27H28.2117ZM36.1512 27V5.1H41.7012V27H36.1512ZM53.3906 12H58.9406V27H53.3906V25.53C52.4706 26.79 51.1306 27.42 49.3706 27.42C47.7306 27.42 46.4106 26.86 45.4106 25.74C44.4306 24.6 43.9406 22.91 43.9406 20.67V12H49.4906V20.07C49.4906 21.41 50.1106 22.08 51.3506 22.08C52.0106 22.08 52.5106 21.87 52.8506 21.45C53.2106 21.03 53.3906 20.45 53.3906 19.71V12ZM71.5179 12H77.0679V27H71.5179V25.65C70.5579 26.83 69.2179 27.42 67.4979 27.42C65.4779 27.42 63.8279 26.67 62.5479 25.17C61.2679 23.67 60.6279 21.78 60.6279 19.5C60.6279 17.22 61.2679 15.33 62.5479 13.83C63.8279 12.33 65.4779 11.58 67.4979 11.58C69.2179 11.58 70.5579 12.17 71.5179 13.35V12ZM66.8979 21.51C67.3979 22.05 68.0479 22.32 68.8479 22.32C69.6479 22.32 70.2879 22.05 70.7679 21.51C71.2679 20.97 71.5179 20.3 71.5179 19.5C71.5179 18.7 71.2679 18.03 70.7679 17.49C70.2879 16.95 69.6479 16.68 68.8479 16.68C68.0479 16.68 67.3979 16.95 66.8979 17.49C66.4179 18.03 66.1779 18.7 66.1779 19.5C66.1779 20.3 66.4179 20.97 66.8979 21.51Z" fill="black"/>
<path d="M85.2113 26.46C84.5513 27.12 83.7413 27.45 82.7813 27.45C81.8213 27.45 81.0013 27.12 80.3213 26.46C79.6613 25.78 79.3313 24.96 79.3313 24C79.3313 23.04 79.6613 22.23 80.3213 21.57C81.0013 20.89 81.8213 20.55 82.7813 20.55C83.7413 20.55 84.5513 20.89 85.2113 21.57C85.8913 22.23 86.2313 23.04 86.2313 24C86.2313 24.96 85.8913 25.78 85.2113 26.46Z" fill="#98FB4A"/>
<path d="M14.3043 13.6018L71.1467 26.9475L71.1121 27.0842L4.22977 10.1367L14.3043 13.6018Z" fill="white"/>
</svg>
