<svg width="30" height="30" viewBox="0 0 30 30" fill="none" xmlns="http://www.w3.org/2000/svg">
<path d="M15 30C23.2843 30 30 23.2843 30 15C30 6.71573 23.2843 0 15 0C6.71573 0 0 6.71573 0 15C0 23.2843 6.71573 30 15 30Z" fill="white"/>
<path d="M5.16882 9.16907V20.8188L10.8499 14.9704L5.16882 9.16907Z" fill="black"/>
<path d="M24.8307 9.16907V20.8188L19.1779 14.9939L24.8307 9.16907Z" fill="black"/>
<path d="M5.59882 8.64062H24.3638L16.9889 16.3198C16.464 16.8663 15.739 17.1752 14.9813 17.1752C14.2236 17.1752 13.4987 16.8663 12.9738 16.3198L5.59882 8.64062Z" fill="black"/>
<path d="M17.4143 16.7283C16.7816 17.3871 15.8948 17.765 14.9813 17.765C14.0679 17.765 13.1811 17.3872 12.5484 16.7283L11.2975 15.4258L5.59882 21.3594H24.3638L18.6652 15.4258L17.4143 16.7283Z" fill="black"/>
</svg>
