<svg width="31" height="70" viewBox="0 0 31 70" fill="none" xmlns="http://www.w3.org/2000/svg">
<g clip-path="url(#clip0)">
<path fill-rule="evenodd" clip-rule="evenodd" d="M16.823 68.2292L15.0074 67.6094C15.0074 67.6094 15.2291 58.3641 11.9071 57.7006C9.69314 55.1345 12.2622 -51.1246 20.2338 57.3463C20.2338 57.3463 17.4877 58.7174 17.0006 61.0625C16.4688 63.363 16.823 68.2292 16.823 68.2292Z" fill="white"/>
<path fill-rule="evenodd" clip-rule="evenodd" d="M16.823 68.2292L15.0074 67.6094C15.0074 67.6094 15.2291 58.3641 11.9071 57.7006C9.69314 55.1345 12.2622 -51.1246 20.2338 57.3463C20.2338 57.3463 17.4877 58.7174 17.0006 61.0625C16.4688 63.363 16.823 68.2292 16.823 68.2292Z" fill="white"/>
<path fill-rule="evenodd" clip-rule="evenodd" d="M17.7978 59.2932C17.7978 59.2932 33.6978 48.8528 29.9769 27.1317C26.3899 11.3395 17.9307 6.16369 17.0006 4.17283C15.9822 2.75722 15.0074 0.280273 15.0074 0.280273L15.6721 44.2076C15.6721 44.2522 14.2991 57.6561 17.7982 59.2937" fill="white"/>
<path fill-rule="evenodd" clip-rule="evenodd" d="M17.7978 59.2932C17.7978 59.2932 33.6978 48.8528 29.9769 27.1317C26.3899 11.3395 17.9307 6.16369 17.0006 4.17283C15.9822 2.75722 15.0074 0.280273 15.0074 0.280273L15.6721 44.2076C15.6721 44.2522 14.2991 57.6561 17.7982 59.2937" fill="#E5E5F7"/>
<path fill-rule="evenodd" clip-rule="evenodd" d="M14.0778 59.8679C14.0778 59.8679 -0.848014 49.6931 0.0379356 31.7772C0.879252 13.8609 11.4199 5.05764 13.4572 3.46514C14.7862 2.04954 14.8303 1.51839 14.9191 0.102783C15.8492 2.09364 15.6721 29.8751 15.8046 33.1483C16.2029 45.7559 15.0962 57.4796 14.0778 59.8679Z" fill="white"/>
<path fill-rule="evenodd" clip-rule="evenodd" d="M14.0778 59.8679C14.0778 59.8679 -0.848014 49.6931 0.0379356 31.7772C0.879252 13.8609 11.4199 5.05764 13.4572 3.46514C14.7862 2.04954 14.8303 1.51839 14.9191 0.102783C15.8492 2.09364 15.6721 29.8751 15.8046 33.1483C16.2029 45.7559 15.0962 57.4796 14.0778 59.8679Z" fill="white"/>
</g>
<defs>
<clipPath id="clip0">
<rect width="30.533" height="70" fill="white"/>
</clipPath>
</defs>
</svg>
