<svg width="70" height="70" viewBox="0 0 70 70" fill="none" xmlns="http://www.w3.org/2000/svg">
<g clip-path="url(#clip0)">
<path d="M41.8616 45.3029L24.6939 41.7154C24.622 41.8544 24.542 41.989 24.4543 42.1187L40.0832 64.9173L41.026 63.9756L43.6849 47.4409C43.2355 47.251 42.8366 46.9588 42.5201 46.5876C42.2036 46.2164 41.9781 45.7763 41.8616 45.3026V45.3029ZM35.5988 22.8607C34.9557 23.8473 33.8455 24.5003 32.5812 24.5003C32.3865 24.5003 32.1973 24.4806 32.0113 24.4511L24.182 36.7013L45.0994 27.6998C45.0928 27.6155 45.0743 27.5368 45.0743 27.4504C45.0743 27.2743 45.0983 27.1037 45.1268 26.9352L35.5988 22.861V22.8607ZM36.1676 20.6284L46.3025 24.9618C46.6255 24.7094 46.9949 24.5228 47.3897 24.4128L49.0555 14.055L42.7093 7.70875L35.566 18.8863C35.9161 19.4042 36.1236 20.0051 36.1676 20.6287V20.6284ZM57.4041 22.4036L51.0439 16.0423L49.6614 24.6304C50.0119 24.8067 50.3267 25.0462 50.59 25.337L57.4041 22.4036ZM42.1657 43.0407C42.4146 42.5889 42.7722 42.2061 43.2061 41.9271C43.64 41.6481 44.1366 41.4817 44.651 41.4427L46.4775 30.082C46.3343 29.9868 46.2063 29.873 46.0805 29.756L25.0428 38.8101C25.0964 39.0299 25.1336 39.2541 25.1511 39.4871L42.1657 43.0407ZM59.1366 24.1371L51.7779 27.3036L69.9344 35.0662L70 35.0005L59.1366 24.1371ZM45.9864 47.475L43.7749 61.2246L56.6166 48.3829L47.3668 46.4513C47.012 46.9155 46.5336 47.2703 45.9864 47.475ZM21.0254 43.94C20.5606 43.94 20.1154 43.8602 19.6987 43.7188L15.4331 50.3943L13.7848 48.7471L17.8251 42.4252C17.7252 42.3012 17.6321 42.1718 17.5462 42.0377L10.2268 45.1891L8.49187 43.4541L16.5036 40.0055L2.01934 36.9824L0.0382813 35.0005L0.665 34.3738L17.3679 37.8607C17.56 37.4963 17.806 37.163 18.0975 36.872L9.99059 25.0471L11.6279 23.4098L20.0977 35.7651C20.4018 35.6944 20.7129 35.6581 21.0252 35.6568C21.3828 35.6568 21.7295 35.7071 22.0609 35.7924L29.9865 23.3912C29.3413 22.7219 28.9809 21.8283 28.9814 20.8986C28.9814 20.6142 29.0175 20.3386 29.0798 20.0739L19.1923 15.8465L20.9267 14.1118L30.2947 18.1182C30.7697 17.7267 31.3375 17.464 31.9434 17.3554C32.5494 17.2468 33.173 17.2959 33.7545 17.4981L41.0618 6.06156L35.0005 0L0 35.0005L35.0005 70.0011L38.4448 66.5569L22.6989 43.5854C22.1719 43.819 21.6019 43.9398 21.0254 43.94ZM48.7055 30.5717L46.8472 42.1209C47.172 42.3818 47.4409 42.7054 47.638 43.0724C47.8351 43.4395 47.9564 43.8424 47.9946 44.2572L58.5416 46.4589L68.1994 36.8011L50.7672 29.348C50.2684 30.0121 49.5273 30.452 48.7055 30.572V30.5717Z" fill="white"/>
</g>
<defs>
<clipPath id="clip0">
<rect width="70" height="70" fill="white"/>
</clipPath>
</defs>
</svg>
