<svg width="64" height="70" viewBox="0 0 64 70" fill="none" xmlns="http://www.w3.org/2000/svg">
<g clip-path="url(#clip0)">
<path d="M28.9195 0.888585C30.6476 -0.1006 32.8985 -0.105068 34.6252 0.888585C43.3119 5.79703 52.0014 10.6978 60.6866 15.6092C62.3202 16.5294 63.4129 18.3474 63.3962 20.2297V49.7608C63.4084 51.721 62.2077 53.5825 60.4843 54.4818C51.8261 59.3632 43.1724 64.2506 34.5157 69.1319C32.7518 70.1405 30.4557 70.0628 28.7469 68.9716C26.1512 67.4668 23.5511 65.9695 20.9551 64.4663C20.4246 64.15 19.8267 63.8983 19.4521 63.384C19.7832 62.9377 20.3752 62.8821 20.8563 62.6872C21.9398 62.3427 22.935 61.7896 23.9303 61.253C24.182 61.0807 24.4894 61.1467 24.7306 61.3009C26.9503 62.5735 29.1503 63.8832 31.3774 65.1437C31.8525 65.418 32.3336 65.0538 32.7397 64.8274C41.236 60.0255 49.7427 55.2416 58.2376 50.4382C58.5523 50.2868 58.7263 49.9527 58.7008 49.6079C58.7067 39.8662 58.7023 30.1228 58.7038 20.3811C58.7397 19.9899 58.5134 19.6302 58.1596 19.4701C49.5315 14.6111 40.9078 9.74459 32.2812 4.8843C32.1317 4.78154 31.9547 4.72641 31.7733 4.72615C31.5919 4.72588 31.4147 4.78049 31.265 4.88281C22.6383 9.74459 14.0162 14.6156 5.38951 19.4743C5.03703 19.6347 4.80047 19.9884 4.84242 20.3811C4.84391 30.1228 4.84242 39.8662 4.84242 49.6094C4.82746 49.7776 4.86441 49.9464 4.94829 50.093C5.03217 50.2396 5.15895 50.3569 5.31157 50.4293C7.61363 51.7347 9.91867 53.0309 12.2222 54.3319C13.5199 55.0304 15.1133 55.4454 16.5431 54.9103C17.8048 54.4578 18.6893 53.1702 18.6652 51.8305C18.6771 42.1457 18.6592 32.4594 18.6741 22.776C18.6426 22.3461 19.0504 21.9909 19.4685 22.0313C20.5746 22.0239 21.6822 22.0164 22.7883 22.0343C23.25 22.0239 23.5677 22.4868 23.5106 22.92C23.5061 32.6661 23.5225 42.4125 23.5031 52.1587C23.5061 54.7561 22.439 57.5824 20.0364 58.8534C17.0765 60.3867 13.4182 60.0615 10.4941 58.5912C7.96264 57.3278 5.54689 55.8367 3.0604 54.4831C1.33249 53.5887 0.13777 51.7198 0.149933 49.761V20.2297C0.131812 18.3084 1.26795 16.4574 2.95242 15.5506C11.6091 10.6653 20.2643 5.77618 28.9195 0.888585Z" fill="white"/>
<path d="M36.4715 21.3448C40.2471 21.1018 44.2889 21.2008 47.6864 23.0608C50.3169 24.4861 51.7752 27.4775 51.8216 30.3999C51.7482 30.794 51.3361 31.0115 50.9598 30.9844C49.8644 30.9829 48.7687 30.9993 47.6733 30.977C47.2086 30.9949 46.9385 30.5664 46.8802 30.1556C46.5654 28.7573 45.8029 27.3725 44.4868 26.6981C42.4665 25.6865 40.1239 25.7374 37.9209 25.7585C36.3127 25.8439 34.5833 25.9832 33.2207 26.9289C32.1747 27.6453 31.857 29.0915 32.2303 30.2561C32.5823 31.0924 33.5477 31.3622 34.3375 31.611C38.8875 32.801 43.7091 32.6826 48.1722 34.2486C50.02 34.8871 51.8276 36.1282 52.4601 38.0629C53.2874 40.6559 52.9248 43.7552 51.0799 45.8369C49.5839 47.5499 47.4049 48.4822 45.2317 48.9886C42.3406 49.6332 39.3403 49.6496 36.4043 49.3634C33.6435 49.0487 30.7705 48.3233 28.6392 46.4423C26.8167 44.8598 25.9266 42.3942 26.015 40.0144C26.0361 39.6126 26.4362 39.3323 26.8212 39.3653C27.9243 39.3564 29.0274 39.3534 30.1306 39.3668C30.5712 39.3353 30.8978 39.7161 30.9204 40.1314C31.124 41.4636 31.6246 42.8619 32.7863 43.6517C35.0283 45.0981 37.8415 44.9991 40.4087 45.0395C42.5355 44.9452 44.9229 44.9167 46.6585 43.511C47.5742 42.7092 47.8455 41.3678 47.598 40.2138C47.33 39.2395 46.3107 38.7855 45.4355 38.4886C40.9438 37.0677 36.0684 37.5833 31.6202 35.9765C29.8143 35.3383 28.068 34.1317 27.3743 32.2765C26.4062 29.6507 26.8497 26.4029 28.8879 24.3915C30.8752 22.3908 33.744 21.6203 36.4715 21.3445V21.3448Z" fill="white"/>
</g>
<defs>
<clipPath id="clip0">
<rect width="63.56" height="70" fill="white"/>
</clipPath>
</defs>
</svg>
