<svg width="70" height="63" viewBox="0 0 70 63" fill="none" xmlns="http://www.w3.org/2000/svg">
<path d="M54.9656 21.785C54.308 21.5595 53.6448 21.3505 52.9767 21.1584C53.0875 20.7081 53.19 20.2559 53.284 19.8019C54.7895 12.4938 53.8052 6.60636 50.4437 4.66832C47.2208 2.80957 41.9497 4.74761 36.6261 9.38026C36.1015 9.8378 35.5886 10.3085 35.0878 10.792C34.7524 10.4705 34.4111 10.1553 34.0641 9.84645C28.4848 4.89253 22.8925 2.80519 19.5345 4.74898C16.3146 6.61292 15.3609 12.1479 16.7163 19.0738C16.8512 19.7596 17.0034 20.4419 17.1729 21.1201C16.3816 21.3448 15.6174 21.5844 14.8863 21.8392C8.34537 24.1196 4.16797 27.6938 4.16797 31.4009C4.16797 35.2299 8.65216 39.0705 15.4654 41.399C16.0178 41.5869 16.5749 41.761 17.136 41.9212C16.9537 42.6518 16.7919 43.3873 16.6507 44.1269C15.3585 50.9325 16.3677 56.3362 19.5791 58.1887C22.896 60.1013 28.463 58.1354 33.8839 53.3969C34.3124 53.0223 34.7425 52.625 35.1731 52.2086C35.7155 52.7319 36.2725 53.2401 36.8432 53.7324C42.0941 58.2507 47.2799 60.0753 50.4885 58.2179C53.8025 56.2996 54.8792 50.4945 53.4809 43.4316C53.3743 42.8921 53.2499 42.3412 53.1104 41.7801C53.5014 41.6647 53.885 41.5455 54.2594 41.4214C61.3422 39.0749 65.9502 35.2811 65.9502 31.4009C65.9502 27.6804 61.6383 24.0821 54.9656 21.785Z" fill="white"/>
<path d="M53.4292 38.9162C53.0915 39.028 52.7448 39.136 52.3916 39.2407C51.6096 36.7654 50.5541 34.1332 49.263 31.4139C50.4954 28.759 51.5098 26.1606 52.2699 23.7011C52.9018 23.8843 53.5154 24.0771 54.1065 24.2808C59.8238 26.2487 63.3111 29.1587 63.3111 31.4008C63.3111 33.7892 59.5444 36.8898 53.4292 38.9162ZM50.8918 43.9442C51.51 47.0673 51.5984 49.891 51.1888 52.0983C50.8207 54.0818 50.0808 55.404 49.166 55.9337C47.2189 57.0607 43.0549 55.5957 38.5647 51.7317C38.0498 51.2887 37.5311 50.8157 37.0111 50.3153C38.752 48.4112 40.4918 46.1975 42.1898 43.7394C45.1767 43.4745 47.9984 43.0411 50.5574 42.4497C50.6832 42.9582 50.7953 43.4567 50.8918 43.9442ZM25.2308 55.739C23.3286 56.4108 21.8135 56.4299 20.8978 55.9019C18.9488 54.7782 18.1389 50.4389 19.2439 44.619C19.3752 43.9312 19.5257 43.2472 19.695 42.5678C22.2256 43.1275 25.0268 43.5303 28.0208 43.7731C29.73 46.1784 31.5201 48.3893 33.3242 50.3254C32.9408 50.6963 32.5483 51.0577 32.1471 51.4093C29.75 53.5048 27.3477 54.9912 25.2308 55.739ZM16.319 38.9014C13.3064 37.8717 10.8185 36.5336 9.11314 35.0735C7.58086 33.761 6.80707 32.4582 6.80707 31.4008C6.80707 29.1513 10.1612 26.2817 15.7552 24.3314C16.4573 24.0877 17.1665 23.8645 17.8816 23.6623C18.6549 26.177 19.669 28.8063 20.8929 31.4651C19.6532 34.1635 18.6245 36.8346 17.8442 39.3788C17.332 39.2322 16.8234 39.073 16.319 38.9014ZM19.3065 18.5668C18.1452 12.6326 18.9163 8.15634 20.8568 7.03311C22.9239 5.8366 27.4942 7.54278 32.3114 11.82C32.6193 12.0934 32.9286 12.3797 33.2383 12.6758C31.4436 14.6032 29.6699 16.7974 27.9754 19.1888C25.0697 19.4581 22.2882 19.8907 19.7311 20.4701C19.5736 19.8392 19.432 19.2048 19.3065 18.5668ZM45.9565 25.1473C45.3525 24.104 44.7261 23.0739 44.0778 22.0576C46.0492 22.3064 47.9377 22.6372 49.7112 23.0422C49.1788 24.7486 48.5152 26.533 47.7338 28.3622C47.1628 27.2789 46.5703 26.207 45.9565 25.1473ZM35.0886 14.5619C36.3059 15.8806 37.5251 17.3533 38.7244 18.9509C36.2917 18.836 33.855 18.8354 31.4222 18.9493C32.6226 17.3664 33.8522 15.8959 35.0886 14.5619ZM24.151 25.1653C23.545 26.2166 22.9635 27.2819 22.4071 28.3603C21.6385 26.5374 20.9809 24.7451 20.4439 23.0143C22.2067 22.6197 24.0865 22.2974 26.0451 22.0527C25.3894 23.0753 24.7579 24.1131 24.151 25.1653ZM26.1014 40.9374C24.078 40.7115 22.1698 40.4055 20.4076 40.0219C20.953 38.2605 21.6251 36.4297 22.4101 34.5676C22.9688 35.6468 23.5529 36.7128 24.1617 37.7645C24.7829 38.8374 25.4297 39.8953 26.1014 40.9374ZM35.1616 48.4262C33.9107 47.0763 32.6631 45.5834 31.4444 43.9776C32.6272 44.0241 33.8333 44.0476 35.0591 44.0476C36.3185 44.0476 37.5634 44.0194 38.7886 43.9647C37.5855 45.5998 36.3707 47.0949 35.1616 48.4262ZM47.7589 34.4728C48.5847 36.355 49.2808 38.176 49.8337 39.9076C48.0422 40.3164 46.1082 40.6456 44.0704 40.8901C44.7234 39.8548 45.3558 38.8066 45.9672 37.7462C46.5886 36.6685 47.186 35.5771 47.7589 34.4728ZM43.6808 36.4277C42.7449 38.0535 41.7564 39.6484 40.7168 41.21C38.8838 41.3409 36.9895 41.4085 35.0591 41.4085C33.1366 41.4085 31.2664 41.3486 29.4653 41.2318C28.3988 39.674 27.3916 38.0763 26.4459 36.4422C25.5046 34.8169 24.6253 33.1563 23.8101 31.4642C24.6233 29.7716 25.4999 28.1102 26.438 26.4835C27.3758 24.8565 28.3751 23.2662 29.4336 21.715C31.271 21.5761 33.155 21.5033 35.0594 21.5033C36.9723 21.5033 38.8586 21.5766 40.6955 21.7166C41.7434 23.2654 42.7362 24.8507 43.6723 26.4696C44.6136 28.0927 45.5019 29.7459 46.3357 31.4268C45.5105 33.1248 44.6247 34.7928 43.6808 36.4277ZM49.1255 6.95464C51.1942 8.14787 51.9989 12.9593 50.6991 19.2692C50.6139 19.6802 50.5212 20.0897 50.4213 20.4974C47.8582 19.906 45.0747 19.4658 42.1605 19.1924C40.4628 16.775 38.7039 14.5769 36.9381 12.6744C37.4008 12.2284 37.8745 11.7938 38.3588 11.3713C42.9201 7.40169 47.1831 5.83441 49.1255 6.95464Z" fill="black"/>
<path d="M35.0588 25.8838C38.1059 25.8838 40.5758 28.3539 40.5758 31.4007C40.5758 34.4478 38.1059 36.9179 35.0588 36.9179C32.0121 36.9179 29.5419 34.4478 29.5419 31.4007C29.5419 28.3539 32.0121 25.8838 35.0588 25.8838Z" fill="white"/>
</svg>
