<svg width="80" height="70" viewBox="0 0 80 70" fill="none" xmlns="http://www.w3.org/2000/svg">
<g clip-path="url(#clip0)">
<path d="M68.8446 40.2136C66.0477 40.232 63.6258 41.0157 61.5946 42.1826C60.8446 40.4508 60.0946 38.9376 59.9697 37.8076C59.8291 36.4951 59.6572 35.6928 59.8291 34.1253C60.0008 32.5574 60.7821 30.3334 60.7821 30.1511C60.7663 29.9871 60.6101 29.185 59.0008 29.1667C57.3916 29.1485 56.0008 29.5313 55.8446 30.0235C55.6883 30.5157 55.3758 31.6459 55.1727 32.8126C54.8915 34.5261 51.954 40.5964 50.2821 43.7865C49.7352 42.547 49.2665 41.4532 49.1726 40.578C49.0321 39.2657 48.8601 38.4634 49.0321 36.8959C49.204 35.328 49.9852 33.1043 49.9852 32.922C49.9696 32.7579 49.8133 31.9558 48.2041 31.9376C46.5946 31.9194 45.2041 32.3022 45.0479 32.7944C44.8916 33.2865 44.7197 34.4532 44.376 35.5834C44.0477 36.7136 40.1415 46.849 39.1258 49.4923C38.6102 50.8412 38.1572 51.9168 37.829 52.6459C37.5008 53.3751 37.8133 52.7006 37.7821 52.7735C37.5008 53.3933 37.3446 53.7397 37.3446 53.7397V53.7581C37.1258 54.2138 36.8915 54.6511 36.7819 54.6511C36.7038 54.6511 36.5476 53.4298 36.8132 51.7529C37.3913 48.2345 38.7976 42.7477 38.7821 42.5471C38.7821 42.456 39.0476 41.4897 37.8757 40.9977C36.7351 40.5055 36.329 41.3258 36.2351 41.3258C36.1413 41.3258 36.0632 41.6175 36.0632 41.6175C36.0632 41.6175 37.3288 35.4379 33.6413 35.4379C31.3288 35.4379 28.1413 38.3728 26.5632 41.0525C25.5632 41.6906 23.4382 43.0393 21.1882 44.4796C20.3288 45.0265 19.4382 45.6098 18.5944 46.1385L18.4227 45.9194C13.954 40.3595 5.68833 36.422 6.03208 28.948C6.15708 26.2319 6.96958 19.0678 21.9072 10.3907C34.1416 3.28133 43.9385 5.23186 45.6415 9.5704C48.0633 15.7683 40.4071 27.2891 27.6885 28.948C22.8447 29.586 20.2977 27.3985 19.6572 26.5782C18.9854 25.7214 18.8916 25.685 18.6416 25.849C18.2354 26.1043 18.4854 26.8699 18.6416 27.3256C19.0166 28.474 20.5791 30.5157 23.2354 31.5365C25.5633 32.4298 31.251 32.922 38.126 29.823C45.8291 26.3412 51.8447 16.6798 50.0791 8.60425C48.2822 0.382897 36.5947 -2.31502 25.5479 2.2605C18.9696 4.99488 11.8446 9.2605 6.71958 14.8569C0.62583 21.4923 -0.34292 27.2891 0.0633302 29.6954C1.48536 38.2813 11.6258 43.8777 15.6883 48.0157C15.4852 48.1431 15.2977 48.2707 15.1258 48.3803C13.0946 49.5468 5.36021 54.2683 3.42271 59.2629C1.23521 64.914 3.76646 68.9793 5.45396 69.5261C10.6727 71.2214 16.0165 68.1772 18.9071 63.1642C21.7819 58.1511 21.4383 51.6433 20.1102 48.672L20.0632 48.5626L21.6569 47.4688C22.6883 46.7579 23.704 46.1016 24.5944 45.5364C24.0946 47.1223 23.7351 48.9999 23.5477 51.7343C23.329 54.9428 24.454 59.0989 25.9383 60.7395C26.5946 61.4502 27.3758 61.4687 27.8602 61.4687C29.579 61.4687 30.3602 59.8096 31.2196 57.8228C32.2821 55.3983 33.2196 52.591 33.2196 52.591C33.2196 52.591 32.0477 60.1926 35.2508 60.1926C36.4227 60.1926 37.5946 58.4244 38.1258 57.5129V57.5312C38.1258 57.5312 38.1571 57.4765 38.2196 57.3489C38.2851 57.2358 38.3477 57.1203 38.4071 57.0027V56.9662C38.8758 56.0183 39.9227 53.849 41.4852 50.2579C43.5007 45.6277 45.4383 39.8308 45.4383 39.8308C45.4383 39.8308 45.6258 41.2527 46.204 43.586C46.5476 44.9716 47.2976 46.4845 47.8757 47.961C47.4069 48.7267 47.1257 49.1643 47.1257 49.1643L47.1413 49.1826C46.7665 49.7659 46.3444 50.3859 45.9071 51.0055C44.3133 53.2294 42.4071 55.7635 42.1571 56.4926C41.8602 57.3492 41.9227 57.9873 42.5008 58.4978C42.9227 58.8624 43.6727 58.9352 44.4696 58.8624C45.9071 58.7529 46.9071 58.3338 47.4071 58.0784C48.1883 57.7503 49.079 57.2581 49.9383 56.5289C51.5008 55.1801 52.454 53.2661 52.3602 50.714C52.3133 49.3103 51.9227 47.9249 51.4383 46.6124C51.579 46.3754 51.7197 46.1383 51.8602 45.8833C54.329 41.6721 56.2352 37.0421 56.2352 37.0421C56.2352 37.0421 56.4227 38.464 57.0008 40.7973C57.2976 41.9822 57.8915 43.2767 58.4227 44.5527C56.1102 46.7584 54.6571 49.3105 54.1571 50.9876C53.2352 54.0866 53.954 55.4902 55.3133 55.8183C55.9226 55.9642 56.7977 55.6361 57.4538 55.3079C58.2663 54.998 59.2507 54.4692 60.1571 53.6855C61.7196 52.3366 63.2196 50.459 63.1415 47.9251C63.0946 46.7584 62.829 45.61 62.4696 44.5163C64.4383 43.5683 66.9851 43.0215 70.2196 43.4772C77.1727 44.4251 78.5477 49.4928 78.2822 51.6074C78.0166 53.7222 76.5635 54.8887 76.079 55.2532C75.5946 55.5996 75.4383 55.7274 75.4852 55.9824C75.5477 56.3654 75.7665 56.347 76.1883 56.2743C76.7665 56.1647 79.8446 54.5425 79.9696 50.6416C80.1571 45.6279 76.079 40.1591 68.8446 40.2136ZM15.2196 61.3048C12.9227 64.2397 9.68833 65.3516 8.31333 64.4037C6.82896 63.4011 7.40692 59.0808 10.2352 55.9636C11.954 54.0678 14.1883 52.3178 15.6571 51.2423C15.9852 51.0053 16.4852 50.6591 17.079 50.2397C17.1727 50.1669 17.2352 50.1303 17.2352 50.1303C17.3446 50.0574 17.4696 49.9662 17.5946 49.8751C18.6415 54.323 17.6415 58.224 15.2196 61.3048ZM32.0165 47.9793C31.2196 50.2579 29.5321 56.1095 28.5165 55.7813C27.6413 55.5079 27.1102 51.0782 28.3444 46.7032C28.9694 44.4973 30.2976 41.8725 31.0788 40.8515C32.3446 39.2108 33.7194 38.664 34.0633 39.3384C34.4696 40.2136 32.5165 46.5574 32.0165 47.9793ZM45.8758 55.7084C45.5321 55.9091 45.2196 56.0548 45.079 55.9456C44.9696 55.8727 45.2194 55.5992 45.2194 55.5992C45.2194 55.5992 46.9538 53.43 47.6413 52.4274C48.0319 51.8442 48.5007 51.1697 49.0007 50.4039V50.6227C49.0008 53.2475 46.8446 54.9975 45.8758 55.7084ZM56.5632 52.8647C56.3132 52.6459 56.3446 51.9714 57.1882 49.8569C57.5165 49.0183 58.2663 47.6147 59.5632 46.2839C59.7194 46.8308 59.8133 47.3593 59.7976 47.8517C59.7821 51.1329 57.7821 52.3543 56.5632 52.8647Z" fill="white"/>
</g>
<defs>
<clipPath id="clip0">
<rect width="80" height="70" fill="white"/>
</clipPath>
</defs>
</svg>
