<?xml version="1.0" standalone="no"?>
<!DOCTYPE svg PUBLIC "-//W3C//DTD SVG 20010904//EN"
 "http://www.w3.org/TR/2001/REC-SVG-20010904/DTD/svg10.dtd">
<svg version="1.0" xmlns="http://www.w3.org/2000/svg"
 width="291.000000pt" height="291.000000pt" viewBox="0 0 291.000000 291.000000"
 preserveAspectRatio="xMidYMid meet">
<metadata>
Created by potrace 1.11, written by Peter Selinger 2001-2013
</metadata>
<g transform="translate(0.000000,291.000000) scale(0.100000,-0.100000)"
fill="#000000" stroke="none">
<path d="M699 1891 c-16 -16 -29 -38 -30 -48 -3 -48 4 -70 32 -95 79 -74 200
12 159 111 -27 66 -110 82 -161 32z"/>
<path d="M940 1710 l0 -202 -32 7 c-18 4 -36 9 -40 12 -5 2 -8 38 -8 79 l0 75
-92 -3 -93 -3 1 -48 c2 -55 9 -54 -123 -22 l-72 18 15 26 c8 14 41 70 74 124
33 55 60 101 60 103 0 2 -49 4 -108 4 l-108 0 -54 -92 c-69 -119 -67 -117 -90
-111 -18 5 -20 14 -20 104 l0 99 -100 0 -100 0 0 -350 0 -350 100 0 99 0 3
145 3 146 84 -146 85 -145 108 0 c59 0 108 2 108 5 0 3 -11 23 -25 45 -14 22
-25 44 -25 49 0 5 -3 11 -7 13 -5 2 -41 58 -82 126 -99 165 -95 169 99 124
l75 -18 0 -172 0 -172 93 0 92 0 1 123 c1 67 0 134 -1 150 -2 29 11 33 58 21
22 -6 22 -9 22 -150 l0 -144 93 0 93 0 -1 123 c0 106 2 124 15 121 8 -2 26 -5
40 -8 l26 -5 -1 -116 -1 -115 93 0 93 0 0 96 c0 84 2 95 16 90 9 -3 24 -6 34
-6 14 0 23 -14 34 -54 9 -30 28 -68 42 -85 51 -60 168 -71 235 -22 29 21 29
21 29 1 0 -19 6 -20 93 -20 l92 0 0 250 0 250 -92 0 -93 0 0 -140 c0 -180 -8
-198 -85 -191 -39 3 -45 27 -45 183 l0 148 -93 0 -93 0 1 -150 c1 -162 2 -158
-52 -144 l-23 6 0 259 0 259 -93 0 -92 0 0 -231 c0 -127 -2 -232 -6 -234 -3
-2 -21 1 -40 6 l-34 11 0 221 0 222 -92 3 -93 3 0 -201z m-677 -85 c-7 -21
-13 -19 -13 6 0 11 4 18 10 14 5 -3 7 -12 3 -20z"/>
<path d="M2186 1685 c-106 -37 -166 -133 -166 -266 0 -50 31 -140 62 -178 43
-55 143 -86 218 -68 22 5 64 28 72 41 7 10 12 -6 9 -26 0 -5 42 -8 94 -8 l95
0 0 250 0 250 -96 0 c-56 0 -93 -4 -89 -9 12 -20 -16 -21 -42 -2 -35 24 -110
32 -157 16z m163 -179 c25 -20 39 -67 30 -100 -12 -42 -44 -66 -88 -66 -49 0
-81 33 -83 84 -3 80 82 129 141 82z"/>
<path d="M2721 1386 c-121 -40 -88 -222 40 -219 43 1 94 33 104 64 20 63 -5
132 -54 151 -42 16 -54 16 -90 4z"/>
</g>
</svg>
